<mxfile host="app.diagrams.net" modified="2021-09-13T17:44:02.232Z" agent="5.0 (Windows NT 10.0; Win64; x64) AppleWebKit/537.36 (KHTML, like Gecko) Chrome/86.0.4240.183 Safari/537.36" etag="iLq1p0_F1aWtdvBYwT6R" version="15.2.4" type="github">
  <diagram id="gFztGU7AP9FfWb09eEWy" name="Page-1">
    <mxGraphModel dx="1422" dy="737" grid="1" gridSize="10" guides="1" tooltips="1" connect="1" arrows="1" fold="1" page="1" pageScale="1" pageWidth="827" pageHeight="1169" math="0" shadow="0">
      <root>
        <mxCell id="0" />
        <mxCell id="1" parent="0" />
        <mxCell id="cbJjGIdikKrvcxVOTl77-3" value="&lt;div&gt;&amp;nbsp;Разработать архитектуру классов иерархии товаров&lt;/div&gt;&lt;div&gt;&amp;nbsp; &amp;nbsp; &amp;nbsp; &amp;nbsp; &amp;nbsp; &amp;nbsp; &amp;nbsp; при разработке системы управления потоками товаров для&lt;/div&gt;&lt;div&gt;&amp;nbsp; &amp;nbsp; &amp;nbsp; &amp;nbsp; &amp;nbsp; &amp;nbsp; &amp;nbsp; дистрибьюторской компании. Прописать члены классов.&lt;/div&gt;&lt;div&gt;&amp;nbsp; &amp;nbsp; &amp;nbsp; &amp;nbsp; &amp;nbsp; &amp;nbsp; &amp;nbsp; Создать диаграммы взаимоотношений классов.&lt;/div&gt;&lt;div&gt;&amp;nbsp; &amp;nbsp; &amp;nbsp; &amp;nbsp; &amp;nbsp; &amp;nbsp; &amp;nbsp; Должны быть предусмотрены разные типы товаров,&lt;/div&gt;&lt;div&gt;&amp;nbsp; &amp;nbsp; &amp;nbsp; &amp;nbsp; &amp;nbsp; &amp;nbsp; &amp;nbsp; в том числе:&lt;/div&gt;&lt;div&gt;&amp;nbsp; &amp;nbsp; &amp;nbsp; &amp;nbsp; &amp;nbsp; &amp;nbsp; &amp;nbsp; • бытовая химия;&amp;nbsp; &amp;nbsp; &amp;nbsp; &amp;nbsp; &amp;nbsp; &amp;nbsp; &amp;nbsp; &amp;nbsp; &amp;nbsp; &amp;nbsp; &amp;nbsp; &amp;nbsp; &amp;nbsp; &amp;nbsp; &amp;nbsp; &amp;nbsp; &amp;nbsp; &amp;nbsp; &amp;nbsp; &amp;nbsp; &amp;nbsp;&lt;/div&gt;&lt;div&gt;&amp;nbsp; &amp;nbsp; &amp;nbsp; &amp;nbsp; &amp;nbsp; &amp;nbsp; &amp;nbsp; • продукты питания.&amp;nbsp; &amp;nbsp; &amp;nbsp; &amp;nbsp; &amp;nbsp; &amp;nbsp; &amp;nbsp; &amp;nbsp; &amp;nbsp; &amp;nbsp; &amp;nbsp; &amp;nbsp; &amp;nbsp;&amp;nbsp;&lt;/div&gt;" style="text;html=1;strokeColor=none;fillColor=none;align=center;verticalAlign=middle;whiteSpace=wrap;rounded=0;" vertex="1" parent="1">
          <mxGeometry x="10" y="10" width="380" height="210" as="geometry" />
        </mxCell>
        <mxCell id="cbJjGIdikKrvcxVOTl77-13" value="&lt;div&gt;// реализовано&lt;/div&gt;&lt;div&gt;&amp;nbsp; &amp;nbsp; class Implemented&lt;/div&gt;&lt;div&gt;&amp;nbsp; &amp;nbsp; &amp;nbsp; &amp;nbsp; ProductСategory ProductImplemented;&lt;/div&gt;" style="text;html=1;align=center;verticalAlign=middle;resizable=0;points=[];autosize=1;strokeColor=none;fillColor=none;" vertex="1" parent="1">
          <mxGeometry x="40" y="580" width="250" height="50" as="geometry" />
        </mxCell>
        <mxCell id="cbJjGIdikKrvcxVOTl77-14" value="&lt;div&gt;//Товар&lt;/div&gt;&lt;div&gt;public abstract class Product&lt;/div&gt;" style="text;html=1;align=center;verticalAlign=middle;resizable=0;points=[];autosize=1;strokeColor=none;fillColor=none;" vertex="1" parent="1">
          <mxGeometry x="80" y="660" width="170" height="30" as="geometry" />
        </mxCell>
        <mxCell id="cbJjGIdikKrvcxVOTl77-16" value="&lt;div&gt;//продукты питания&lt;/div&gt;&lt;div&gt;&amp;nbsp; &amp;nbsp; public abstract class ProductsNutrition : ProductСategory&lt;/div&gt;" style="text;html=1;align=center;verticalAlign=middle;resizable=0;points=[];autosize=1;strokeColor=none;fillColor=none;" vertex="1" parent="1">
          <mxGeometry x="30" y="750" width="330" height="30" as="geometry" />
        </mxCell>
        <mxCell id="cbJjGIdikKrvcxVOTl77-17" value="&lt;div&gt;// Категория товара&lt;/div&gt;&lt;div&gt;&amp;nbsp; &amp;nbsp; public abstract class ProductСategory : Product&lt;/div&gt;" style="text;html=1;align=center;verticalAlign=middle;resizable=0;points=[];autosize=1;strokeColor=none;fillColor=none;" vertex="1" parent="1">
          <mxGeometry x="40" y="820" width="280" height="30" as="geometry" />
        </mxCell>
        <mxCell id="cbJjGIdikKrvcxVOTl77-18" value="&lt;div&gt;//седобный продукт&lt;/div&gt;&lt;div&gt;&amp;nbsp; &amp;nbsp; class SaltyProduct : ProductsNutrition&lt;/div&gt;" style="text;html=1;align=center;verticalAlign=middle;resizable=0;points=[];autosize=1;strokeColor=none;fillColor=none;" vertex="1" parent="1">
          <mxGeometry x="55" y="900" width="230" height="30" as="geometry" />
        </mxCell>
        <mxCell id="cbJjGIdikKrvcxVOTl77-19" value="&lt;div&gt;&amp;nbsp; //передано&lt;/div&gt;&lt;div&gt;&amp;nbsp; &amp;nbsp; class Transferred&lt;/div&gt;&lt;div&gt;&amp;nbsp; &amp;nbsp; &amp;nbsp; &amp;nbsp; ProductСategory ProductTransferred;&lt;/div&gt;" style="text;html=1;align=center;verticalAlign=middle;resizable=0;points=[];autosize=1;strokeColor=none;fillColor=none;" vertex="1" parent="1">
          <mxGeometry x="45" y="990" width="240" height="50" as="geometry" />
        </mxCell>
        <mxCell id="cbJjGIdikKrvcxVOTl77-20" value="&lt;div&gt;&amp;nbsp; //списано&lt;/div&gt;&lt;div&gt;&amp;nbsp; &amp;nbsp; class WrittenOff&lt;/div&gt;&lt;div&gt;&amp;nbsp; &amp;nbsp; &amp;nbsp; &amp;nbsp; ProductСategory ProductOff;&lt;/div&gt;" style="text;html=1;align=center;verticalAlign=middle;resizable=0;points=[];autosize=1;strokeColor=none;fillColor=none;" vertex="1" parent="1">
          <mxGeometry x="60" y="1090" width="200" height="50" as="geometry" />
        </mxCell>
        <mxCell id="cbJjGIdikKrvcxVOTl77-23" value="class ArtificialProduct : HouseholdChemicals" style="swimlane;fontStyle=1;align=center;verticalAlign=top;childLayout=stackLayout;horizontal=1;startSize=26;horizontalStack=0;resizeParent=1;resizeParentMax=0;resizeLast=0;collapsible=1;marginBottom=0;" vertex="1" parent="1">
          <mxGeometry x="440" y="240" width="340" height="86" as="geometry" />
        </mxCell>
        <mxCell id="cbJjGIdikKrvcxVOTl77-24" value="+ field: type" style="text;strokeColor=none;fillColor=none;align=left;verticalAlign=top;spacingLeft=4;spacingRight=4;overflow=hidden;rotatable=0;points=[[0,0.5],[1,0.5]];portConstraint=eastwest;" vertex="1" parent="cbJjGIdikKrvcxVOTl77-23">
          <mxGeometry y="26" width="340" height="26" as="geometry" />
        </mxCell>
        <mxCell id="cbJjGIdikKrvcxVOTl77-25" value="" style="line;strokeWidth=1;fillColor=none;align=left;verticalAlign=middle;spacingTop=-1;spacingLeft=3;spacingRight=3;rotatable=0;labelPosition=right;points=[];portConstraint=eastwest;" vertex="1" parent="cbJjGIdikKrvcxVOTl77-23">
          <mxGeometry y="52" width="340" height="8" as="geometry" />
        </mxCell>
        <mxCell id="cbJjGIdikKrvcxVOTl77-26" value="+ method(type): type" style="text;strokeColor=none;fillColor=none;align=left;verticalAlign=top;spacingLeft=4;spacingRight=4;overflow=hidden;rotatable=0;points=[[0,0.5],[1,0.5]];portConstraint=eastwest;" vertex="1" parent="cbJjGIdikKrvcxVOTl77-23">
          <mxGeometry y="60" width="340" height="26" as="geometry" />
        </mxCell>
        <mxCell id="cbJjGIdikKrvcxVOTl77-28" value="&lt;span&gt;//искуственный продукт&lt;/span&gt;" style="text;html=1;strokeColor=none;fillColor=none;align=center;verticalAlign=middle;whiteSpace=wrap;rounded=0;" vertex="1" parent="1">
          <mxGeometry x="425" y="200" width="140" height="20" as="geometry" />
        </mxCell>
        <mxCell id="cbJjGIdikKrvcxVOTl77-29" value="class Coming" style="swimlane;fontStyle=1;align=center;verticalAlign=top;childLayout=stackLayout;horizontal=1;startSize=26;horizontalStack=0;resizeParent=1;resizeParentMax=0;resizeLast=0;collapsible=1;marginBottom=0;" vertex="1" parent="1">
          <mxGeometry x="440" y="380" width="200" height="86" as="geometry" />
        </mxCell>
        <mxCell id="cbJjGIdikKrvcxVOTl77-30" value="+ field: type" style="text;strokeColor=none;fillColor=none;align=left;verticalAlign=top;spacingLeft=4;spacingRight=4;overflow=hidden;rotatable=0;points=[[0,0.5],[1,0.5]];portConstraint=eastwest;" vertex="1" parent="cbJjGIdikKrvcxVOTl77-29">
          <mxGeometry y="26" width="200" height="26" as="geometry" />
        </mxCell>
        <mxCell id="cbJjGIdikKrvcxVOTl77-31" value="" style="line;strokeWidth=1;fillColor=none;align=left;verticalAlign=middle;spacingTop=-1;spacingLeft=3;spacingRight=3;rotatable=0;labelPosition=right;points=[];portConstraint=eastwest;" vertex="1" parent="cbJjGIdikKrvcxVOTl77-29">
          <mxGeometry y="52" width="200" height="8" as="geometry" />
        </mxCell>
        <mxCell id="cbJjGIdikKrvcxVOTl77-32" value="+ method(type): type" style="text;strokeColor=none;fillColor=none;align=left;verticalAlign=top;spacingLeft=4;spacingRight=4;overflow=hidden;rotatable=0;points=[[0,0.5],[1,0.5]];portConstraint=eastwest;" vertex="1" parent="cbJjGIdikKrvcxVOTl77-29">
          <mxGeometry y="60" width="200" height="26" as="geometry" />
        </mxCell>
        <mxCell id="cbJjGIdikKrvcxVOTl77-33" value="&amp;nbsp;// приход" style="text;html=1;align=center;verticalAlign=middle;resizable=0;points=[];autosize=1;strokeColor=none;fillColor=none;" vertex="1" parent="1">
          <mxGeometry x="425" y="340" width="70" height="20" as="geometry" />
        </mxCell>
        <mxCell id="cbJjGIdikKrvcxVOTl77-34" value="" style="endArrow=none;html=1;exitX=0.086;exitY=1.05;exitDx=0;exitDy=0;exitPerimeter=0;entryX=0;entryY=0;entryDx=0;entryDy=0;" edge="1" parent="1" source="cbJjGIdikKrvcxVOTl77-33" target="cbJjGIdikKrvcxVOTl77-29">
          <mxGeometry width="50" height="50" relative="1" as="geometry">
            <mxPoint x="510" y="550" as="sourcePoint" />
            <mxPoint x="560" y="500" as="targetPoint" />
          </mxGeometry>
        </mxCell>
        <mxCell id="cbJjGIdikKrvcxVOTl77-35" value="" style="endArrow=none;html=1;entryX=0.079;entryY=1.2;entryDx=0;entryDy=0;entryPerimeter=0;exitX=0;exitY=0;exitDx=0;exitDy=0;" edge="1" parent="1" source="cbJjGIdikKrvcxVOTl77-23" target="cbJjGIdikKrvcxVOTl77-28">
          <mxGeometry width="50" height="50" relative="1" as="geometry">
            <mxPoint x="510" y="550" as="sourcePoint" />
            <mxPoint x="560" y="500" as="targetPoint" />
          </mxGeometry>
        </mxCell>
        <mxCell id="cbJjGIdikKrvcxVOTl77-37" value="public abstract class HouseholdChemicals : ProductСategory" style="swimlane;fontStyle=1;align=center;verticalAlign=top;childLayout=stackLayout;horizontal=1;startSize=26;horizontalStack=0;resizeParent=1;resizeParentMax=0;resizeLast=0;collapsible=1;marginBottom=0;" vertex="1" parent="1">
          <mxGeometry x="450" y="530" width="370" height="86" as="geometry" />
        </mxCell>
        <mxCell id="cbJjGIdikKrvcxVOTl77-38" value="+ field: type" style="text;strokeColor=none;fillColor=none;align=left;verticalAlign=top;spacingLeft=4;spacingRight=4;overflow=hidden;rotatable=0;points=[[0,0.5],[1,0.5]];portConstraint=eastwest;" vertex="1" parent="cbJjGIdikKrvcxVOTl77-37">
          <mxGeometry y="26" width="370" height="26" as="geometry" />
        </mxCell>
        <mxCell id="cbJjGIdikKrvcxVOTl77-39" value="" style="line;strokeWidth=1;fillColor=none;align=left;verticalAlign=middle;spacingTop=-1;spacingLeft=3;spacingRight=3;rotatable=0;labelPosition=right;points=[];portConstraint=eastwest;" vertex="1" parent="cbJjGIdikKrvcxVOTl77-37">
          <mxGeometry y="52" width="370" height="8" as="geometry" />
        </mxCell>
        <mxCell id="cbJjGIdikKrvcxVOTl77-40" value="+ method(type): type" style="text;strokeColor=none;fillColor=none;align=left;verticalAlign=top;spacingLeft=4;spacingRight=4;overflow=hidden;rotatable=0;points=[[0,0.5],[1,0.5]];portConstraint=eastwest;" vertex="1" parent="cbJjGIdikKrvcxVOTl77-37">
          <mxGeometry y="60" width="370" height="26" as="geometry" />
        </mxCell>
        <mxCell id="cbJjGIdikKrvcxVOTl77-41" value="&amp;nbsp;// бытовая химия" style="text;html=1;align=center;verticalAlign=middle;resizable=0;points=[];autosize=1;strokeColor=none;fillColor=none;" vertex="1" parent="1">
          <mxGeometry x="440" y="490" width="110" height="20" as="geometry" />
        </mxCell>
        <mxCell id="cbJjGIdikKrvcxVOTl77-44" value="" style="endArrow=none;html=1;entryX=0.009;entryY=1.05;entryDx=0;entryDy=0;entryPerimeter=0;exitX=0.022;exitY=-0.012;exitDx=0;exitDy=0;exitPerimeter=0;" edge="1" parent="1" source="cbJjGIdikKrvcxVOTl77-37" target="cbJjGIdikKrvcxVOTl77-41">
          <mxGeometry width="50" height="50" relative="1" as="geometry">
            <mxPoint x="510" y="550" as="sourcePoint" />
            <mxPoint x="560" y="500" as="targetPoint" />
          </mxGeometry>
        </mxCell>
      </root>
    </mxGraphModel>
  </diagram>
</mxfile>
